<svg width="56" height="60" viewBox="0 0 56 60" fill="none" xmlns="http://www.w3.org/2000/svg">
<g clip-path="url(#clip0)">
<path d="M10.01 11.8101L0.274414 6.11639L9.61984 0.702148L19.3575 6.16153L10.01 11.8101Z" fill="#1A1A1A"/>
<path d="M0.107422 17.3661L0.31591 6.08948L9.93001 11.7713L9.89132 23.1629L0.107422 17.3661Z" fill="#1A1A1A"/>
<path d="M9.88439 23.1629L9.8457 11.7713L19.4598 6.08948L19.6683 17.3661L9.88439 23.1629Z" fill="#1A1A1A"/>
<path d="M29.1398 39.1069L19.4043 33.4133L28.7497 27.999L38.4874 33.4584L29.1398 39.1069Z" fill="#1A1A1A"/>
<path d="M19.2373 44.6631L19.4458 33.3865L29.0599 39.0683L29.0212 50.4599L19.2373 44.6631Z" fill="#1A1A1A"/>
<path d="M29.0133 50.4599L28.9746 39.0683L38.5887 33.3865L38.7972 44.6631L29.0133 50.4599Z" fill="#1A1A1A"/>
<path d="M46.2267 29.7572L36.4912 24.0635L45.8366 18.6493L55.5743 24.1087L46.2267 29.7572Z" fill="#1A1A1A"/>
<path d="M36.3242 35.3134L36.5327 24.0367L46.1468 29.7186L46.1081 41.1102L36.3242 35.3134Z" fill="#1A1A1A"/>
<path d="M46.1012 41.1102L46.0625 29.7186L55.6766 24.0367L55.8851 35.3134L46.1012 41.1102Z" fill="#1A1A1A"/>
<path d="M9.90253 29.1124L0.166992 23.4188L9.51242 18.0045L19.2501 23.4639L9.90253 29.1124Z" fill="#1A1A1A"/>
<path d="M0 34.6685L0.208488 23.3918L9.82259 29.0737L9.7839 40.4653L0 34.6685Z" fill="#1A1A1A"/>
<path d="M9.77697 40.4653L9.73828 29.0737L19.3524 23.3918L19.5609 34.6685L9.77697 40.4653Z" fill="#1A1A1A"/>
<path d="M9.90253 48.3492L0.166992 42.6556L9.51242 37.2413L19.2501 42.7007L9.90253 48.3492Z" fill="#1A1A1A"/>
<path d="M0 53.9053L0.208488 42.6287L9.82259 48.3105L9.7839 59.7021L0 53.9053Z" fill="#1A1A1A"/>
<path d="M9.77697 59.7021L9.73828 48.3105L19.3524 42.6287L19.5609 53.9053L9.77697 59.7021Z" fill="#1A1A1A"/>
</g>
<defs>
<clipPath id="clip0">
<rect width="55.8845" height="59" fill="white" transform="translate(0 0.702148)"/>
</clipPath>
</defs>
</svg>
