<svg width="60" height="60" viewBox="0 0 60 60" fill="none" xmlns="http://www.w3.org/2000/svg">
<g clip-path="url(#clip0)">
<path d="M54.8082 55.587H4.39844V5.17725H54.8082V55.587ZM6.45598 53.5295H52.7507V7.23479H6.45598V53.5295Z" fill="#1A1A1A"/>
<path opacity="0.98" d="M48.6865 30.3051L29.6025 11.2212L10.5186 30.3051L29.6025 49.3891L48.6865 30.3051Z" fill="#1A1A1A"/>
<path d="M6.73845 14.179C10.46 14.179 13.4769 11.1621 13.4769 7.4406C13.4769 3.71905 10.46 0.702148 6.73845 0.702148C3.01691 0.702148 0 3.71905 0 7.4406C0 11.1621 3.01691 14.179 6.73845 14.179Z" fill="#1A1A1A"/>
<path d="M52.3127 14.179C56.0342 14.179 59.0511 11.1621 59.0511 7.4406C59.0511 3.71905 56.0342 0.702148 52.3127 0.702148C48.5911 0.702148 45.5742 3.71905 45.5742 7.4406C45.5742 11.1621 48.5911 14.179 52.3127 14.179Z" fill="#1A1A1A"/>
<path d="M52.3127 59.7021C56.0342 59.7021 59.0511 56.6852 59.0511 52.9637C59.0511 49.2421 56.0342 46.2252 52.3127 46.2252C48.5911 46.2252 45.5742 49.2421 45.5742 52.9637C45.5742 56.6852 48.5911 59.7021 52.3127 59.7021Z" fill="#1A1A1A"/>
<path d="M6.73845 59.7021C10.46 59.7021 13.4769 56.6852 13.4769 52.9637C13.4769 49.2421 10.46 46.2252 6.73845 46.2252C3.01691 46.2252 0 49.2421 0 52.9637C0 56.6852 3.01691 59.7021 6.73845 59.7021Z" fill="#1A1A1A"/>
</g>
<defs>
<clipPath id="clip0">
<rect width="59.0514" height="59" fill="white" transform="translate(0 0.702148)"/>
</clipPath>
</defs>
</svg>
