<svg width="59" height="60" viewBox="0 0 59 60" fill="none" xmlns="http://www.w3.org/2000/svg">
<g clip-path="url(#clip0)">
<path d="M59 59.7021H0V0.702148H59V59.7021ZM1.29197 58.4102H57.708V1.99412H1.29197V58.4102Z" fill="#1A1A1A"/>
<path d="M12.5967 8.13098H11.3047V51.412H12.5967V8.13098Z" fill="#1A1A1A"/>
<path d="M30.1465 8.56165H28.8545V51.8427H30.1465V8.56165Z" fill="#1A1A1A"/>
<path d="M47.0488 8.56165H45.7568V51.8427H47.0488V8.56165Z" fill="#1A1A1A"/>
<path d="M11.9511 27.4029C15.2809 27.4029 17.9803 24.7035 17.9803 21.3737C17.9803 18.0438 15.2809 15.3445 11.9511 15.3445C8.62124 15.3445 5.92188 18.0438 5.92188 21.3737C5.92188 24.7035 8.62124 27.4029 11.9511 27.4029Z" fill="#1A1A1A"/>
<path d="M29.4999 42.2605C32.8297 42.2605 35.5291 39.5612 35.5291 36.2313C35.5291 32.9015 32.8297 30.2021 29.4999 30.2021C26.1701 30.2021 23.4707 32.9015 23.4707 36.2313C23.4707 39.5612 26.1701 42.2605 29.4999 42.2605Z" fill="#1A1A1A"/>
<path d="M46.4032 33.4321C49.7331 33.4321 52.4324 30.7327 52.4324 27.4029C52.4324 24.073 49.7331 21.3737 46.4032 21.3737C43.0734 21.3737 40.374 24.073 40.374 27.4029C40.374 30.7327 43.0734 33.4321 46.4032 33.4321Z" fill="#1A1A1A"/>
</g>
<defs>
<clipPath id="clip0">
<rect width="59" height="59" fill="white" transform="translate(0 0.702148)"/>
</clipPath>
</defs>
</svg>
