<svg width="26" height="26" viewBox="0 0 26 26" fill="none" xmlns="http://www.w3.org/2000/svg">
<g clip-path="url(#clip0)">
<path d="M22.6567 3.34375H3.72319C2.12523 3.34375 0.825195 4.65801 0.825195 6.27344V18.7734C0.825195 20.3889 2.12523 21.7031 3.72319 21.7031H22.6567C24.2547 21.7031 25.5547 20.3889 25.5547 18.7734V6.27344C25.5547 4.65801 24.2547 3.34375 22.6567 3.34375ZM23.6227 18.7734C23.6227 19.3119 23.1894 19.75 22.6567 19.75H3.72319C3.19054 19.75 2.75719 19.3119 2.75719 18.7734V6.27344C2.75719 5.73496 3.19054 5.29688 3.72319 5.29688H22.6567C23.1894 5.29688 23.6227 5.73496 23.6227 6.27344V18.7734Z" fill="white"/>
<path d="M23.4591 4.56104L13.1904 12.2826L2.92167 4.56104L1.76855 6.12817L13.1904 14.7167L24.6123 6.12817L23.4591 4.56104Z" fill="white"/>
</g>
<defs>
<clipPath id="clip0">
<rect width="24.7295" height="25" fill="white" transform="translate(0.825195 0.0234375)"/>
</clipPath>
</defs>
</svg>
