<svg width="27" height="27" viewBox="0 0 27 27" fill="none" xmlns="http://www.w3.org/2000/svg">
<g clip-path="url(#clip0)">
<path d="M26.1931 11.9637L14.517 1.2329L14.4054 1.13037C14.3287 1.05994 14.2445 1.00271 14.1556 0.958682C14.1516 0.956752 14.1475 0.95533 14.1435 0.9534C13.8536 0.814361 13.5155 0.814361 13.2255 0.9534C13.2215 0.955279 13.2174 0.956701 13.2134 0.958682C13.1245 1.00271 13.0403 1.05994 12.9636 1.13037L12.8537 1.23143L1.17598 11.9637C0.738058 12.3661 0.705759 13.0513 1.1039 13.494C1.50198 13.9367 2.17976 13.9694 2.61768 13.5669L2.96845 13.2445V25.7653C2.96845 26.3636 3.44822 26.8486 4.04005 26.8486H9.39813H17.971H23.3291C23.9209 26.8486 24.4007 26.3636 24.4007 25.7653V13.2445L24.7514 13.5669C25.1894 13.9694 25.8671 13.9367 26.2652 13.494C26.6634 13.0513 26.6311 12.3662 26.1931 11.9637ZM11.5413 24.682V18.182C11.5413 16.9852 12.5007 16.0153 13.6846 16.0153C14.8684 16.0153 15.8278 16.9852 15.8278 18.182V24.682H11.5413ZM22.2575 24.682H17.971V18.182C17.971 15.7886 16.0521 13.8486 13.6846 13.8486C11.317 13.8486 9.39813 15.7886 9.39813 18.182V24.682H5.11164V11.275L13.6846 3.39608L22.2575 11.275V24.682Z" fill="white"/>
</g>
<defs>
<clipPath id="clip0">
<rect width="25.7187" height="26" fill="white" transform="translate(0.825195 0.847656)"/>
</clipPath>
</defs>
</svg>
