<svg width="23" height="23" viewBox="0 0 23 23" fill="none" xmlns="http://www.w3.org/2000/svg">
<path fill-rule="evenodd" clip-rule="evenodd" d="M11.4223 0.666295C8.70801 0.666295 8.27944 0.666295 7.13658 0.737723C5.99372 0.809152 5.13658 0.95201 4.49372 1.23772C3.77944 1.52344 3.13658 1.88058 2.56515 2.52344C1.92229 3.16629 1.56515 3.73772 1.27944 4.45201C0.993722 5.1663 0.850865 5.95201 0.779436 7.09487C0.708007 8.23772 0.708008 8.6663 0.708008 11.5949C0.708008 14.5949 0.708007 14.952 0.779436 16.0949C0.850865 17.2377 0.993722 18.0949 1.27944 18.7377C1.56515 19.452 1.92229 20.0949 2.56515 20.6663C3.20801 21.3092 3.77944 21.6663 4.49372 21.952C5.20801 22.2377 5.99372 22.3806 7.13658 22.452C8.27944 22.5234 8.70801 22.5234 11.6366 22.5234C14.6366 22.5234 14.9937 22.5234 16.1366 22.452C17.2794 22.3806 18.1366 22.2377 18.7794 21.952C19.4937 21.6663 20.1366 21.3092 20.708 20.6663C21.3509 20.0234 21.708 19.452 21.9937 18.7377C22.2794 18.0234 22.4223 17.2377 22.4937 16.0949C22.5652 14.952 22.5652 14.5949 22.5652 11.8092V11.2377C22.5652 8.52344 22.5652 8.09487 22.4937 6.95201C22.4223 5.80915 22.2794 4.95201 21.9937 4.30915C21.708 3.59487 21.3509 2.95201 20.708 2.38058C20.0652 1.73772 19.4937 1.38058 18.7794 1.09487C18.0652 0.809152 17.2794 0.666295 16.1366 0.594866C14.9937 0.523438 14.6366 0.523438 11.8509 0.523438H11.4223V0.666295ZM18.9223 5.73772C18.9223 6.45201 18.3509 7.02344 17.6366 7.02344C16.9223 7.02344 16.3509 6.45201 16.3509 5.73772C16.3509 5.02344 16.9223 4.45201 17.6366 4.45201C18.2794 4.45201 18.9223 5.02344 18.9223 5.73772ZM11.708 15.2377C9.70801 15.2377 8.06515 13.5949 8.06515 11.5949C8.06515 9.59487 9.70801 7.95201 11.708 7.95201C13.708 7.95201 15.3509 9.59487 15.3509 11.5949C15.3509 13.5949 13.708 15.2377 11.708 15.2377ZM11.708 5.95201C14.8509 5.95201 17.3509 8.45201 17.3509 11.5949C17.3509 14.7377 14.8509 17.2377 11.708 17.2377C8.56515 17.2377 6.06515 14.7377 6.06515 11.5949C6.06515 8.45201 8.63658 5.95201 11.708 5.95201ZM11.708 2.59487C14.6366 2.59487 14.9937 2.59487 16.1366 2.6663C17.208 2.73772 17.7794 2.88058 18.208 3.02344C18.708 3.23772 19.0652 3.45201 19.4937 3.80915C19.8509 4.16629 20.1366 4.52344 20.2794 5.09487C20.4223 5.45201 20.6366 6.09487 20.6366 7.1663C20.708 8.30915 20.708 8.6663 20.708 11.5949C20.708 14.5234 20.708 14.8806 20.6366 16.0234C20.5652 17.0949 20.4223 17.6663 20.2794 18.0949C20.0652 18.5949 19.8509 18.952 19.4937 19.3806C19.1366 19.7377 18.7794 20.0234 18.208 20.1663C17.8509 20.3092 17.208 20.5234 16.1366 20.5234C14.9937 20.5949 14.6366 20.5949 11.708 20.5949C8.77944 20.5949 8.42229 20.5949 7.27944 20.5234C6.20801 20.452 5.63658 20.3092 5.20801 20.1663C4.70801 19.952 4.35086 19.7377 3.92229 19.3806C3.56515 19.0234 3.27944 18.6663 3.13658 18.0949C2.99372 17.7377 2.77944 17.0949 2.77944 16.0234C2.70801 14.8806 2.70801 14.5234 2.70801 11.5949C2.70801 8.6663 2.70801 8.30915 2.77944 7.1663C2.85087 6.09487 2.99372 5.52344 3.13658 5.09487C3.35087 4.59487 3.56515 4.23772 3.92229 3.80915C4.27944 3.45201 4.63658 3.1663 5.20801 3.02344C5.56515 2.88058 6.20801 2.6663 7.27944 2.6663C8.42229 2.59487 8.77944 2.59487 11.708 2.59487Z" fill="white"/>
</svg>
