<svg width="25" height="26" viewBox="0 0 25 26" fill="none" xmlns="http://www.w3.org/2000/svg">
<path d="M6.60251 22.6015C6.60251 22.1834 6.74188 21.7304 6.56766 21.4168C6.39345 21.1381 5.90565 21.0335 5.55723 20.8593C3.71057 19.8837 2.28202 18.49 1.55032 16.5388C1.23674 15.7723 1.13221 14.9012 0.992841 14.065C0.853471 13.2288 0.818628 12.3926 0.783785 11.5563C0.7141 9.74453 0.923156 7.93272 1.30642 6.15574C1.51548 5.14531 2.03812 4.27424 2.66529 3.5077C3.64088 2.28821 4.82553 1.27777 6.32376 0.789976C7.19483 0.511235 8.10074 0.371864 9.00665 0.267336C10.2261 0.127966 11.4805 0.0234375 12.7 0.0234375C13.9195 0.0234375 15.139 0.127966 16.3584 0.232493C17.1598 0.302179 17.9612 0.441549 18.7626 0.615763C20.1563 0.929346 21.3061 1.73073 22.3165 2.70632C23.2921 3.64707 24.0935 4.76204 24.3722 6.1209C24.7904 8.10693 25.0343 10.093 24.86 12.1138C24.7555 13.3333 24.6161 14.518 24.4071 15.7375C24.1632 17.1312 23.3967 18.2113 22.4211 19.1869C21.4106 20.2322 20.2608 21.0684 18.7974 21.382C17.6825 21.6259 16.5327 21.7304 15.4177 21.8698C14.8254 21.9395 14.1982 21.9743 13.571 21.9743C12.8742 21.9743 12.1425 21.9395 11.4456 21.9395C11.2714 21.9395 11.0275 22.044 10.8881 22.1834C10.0868 22.9847 9.35507 23.7861 8.58854 24.5875C8.03105 25.145 7.26452 25.1798 6.8464 24.6223C6.67219 24.3784 6.6025 24.03 6.56766 23.7513C6.56766 23.3332 6.60251 22.9847 6.60251 22.6015ZM7.5781 21.5213C7.5781 21.8698 7.5781 22.2182 7.5781 22.5666C7.5781 22.915 7.5781 23.2635 7.5781 23.6119C7.5781 23.7164 7.64778 23.8558 7.71747 23.8906C7.78716 23.9255 7.92653 23.821 7.99621 23.7513C8.0659 23.7164 8.10074 23.6467 8.17042 23.5771C9.35507 22.3576 10.5049 21.1729 11.6895 19.9883C11.8289 19.8489 12.038 19.7444 12.247 19.7444C13.9195 19.7444 15.5919 19.605 17.2644 19.3959C18.2399 19.2566 19.1459 19.0127 19.9472 18.3855C20.9925 17.5493 21.9681 16.6434 22.212 15.2845C22.4559 13.9953 22.5953 12.6713 22.665 11.3473C22.6998 10.2672 22.5604 9.15221 22.4559 8.07209C22.3514 6.92228 22.0726 5.80732 21.2364 4.86656C20.4002 3.92581 19.4594 3.05475 18.1703 2.81085C16.9159 2.56695 15.6616 2.42758 14.3724 2.35789C12.2819 2.25337 10.1565 2.32305 8.10074 2.70632C5.87081 3.08959 4.33773 4.37877 3.5712 6.46933C3.22277 7.41008 3.15308 8.45536 3.0834 9.46579C3.01371 10.755 3.04856 12.079 3.15308 13.3682C3.18793 14.1347 3.29246 14.9361 3.5712 15.6678C4.19836 17.3751 5.4527 18.49 7.12514 19.152C7.43873 19.2914 7.5781 19.4308 7.5781 19.7792C7.54326 20.3019 7.5781 20.929 7.5781 21.5213Z" fill="white"/>
<path d="M13.8152 14.0997C13.9545 14.03 14.1287 13.9604 14.2681 13.8558C14.4423 13.7165 14.5468 13.5074 14.7211 13.368C15.0695 13.0196 15.4876 12.8802 15.9057 13.1241C16.6722 13.6468 17.4388 14.1694 18.1705 14.7617C18.4492 14.9708 18.5537 15.2844 18.3795 15.6328C17.9963 16.5039 17.4388 17.2007 16.4632 17.4795C16.3238 17.5143 16.1845 17.5143 16.0451 17.4795C12.8047 16.3297 10.087 14.5178 8.27517 11.5214C7.64801 10.5109 7.19505 9.39598 6.67241 8.31586C6.39367 7.79322 6.4982 7.30542 6.81178 6.81762C7.19505 6.26014 7.68285 5.84203 8.27517 5.56329C8.6236 5.38908 9.00687 5.42392 9.25077 5.7375C9.80825 6.43435 10.3309 7.16605 10.8187 7.93259C11.1671 8.49007 10.9929 8.94302 10.5051 9.36114C10.4006 9.43082 10.3309 9.50051 10.2264 9.57019C9.91278 9.81409 9.84309 10.1277 9.98246 10.4761C10.5748 12.1137 11.6549 13.3332 13.3274 13.9604C13.4667 14.03 13.6061 14.03 13.8152 14.0997Z" fill="white"/>
<path d="M18.833 10.8943C18.833 10.9989 18.9026 11.1382 18.8678 11.2428C18.7981 11.3821 18.6936 11.5912 18.5542 11.626C18.4497 11.6609 18.2058 11.4518 18.1709 11.3473C18.0664 10.9989 18.0664 10.6504 18.0316 10.302C17.8922 8.2463 16.3243 6.29511 14.3383 5.80731C13.9201 5.70278 13.4672 5.66794 13.0142 5.59826C12.9097 5.59826 12.84 5.56341 12.7355 5.56341C12.4916 5.52857 12.3174 5.45889 12.3174 5.18014C12.3522 4.86656 12.5961 4.79688 12.84 4.79688C15.5229 4.9014 17.8225 6.43448 18.5891 9.18705C18.7284 9.74453 18.7981 10.3369 18.8678 10.8943C18.8678 10.8595 18.8678 10.8943 18.833 10.8943Z" fill="white"/>
<path d="M17.334 10.511C17.2992 10.5807 17.334 10.7201 17.2643 10.7898C17.1598 10.8943 17.0204 11.0337 16.8811 11.0337C16.7765 11.0337 16.6023 10.8594 16.6023 10.7549C16.4978 10.3716 16.4978 9.91869 16.3933 9.53543C16.0448 8.21141 14.9299 7.3055 13.5362 7.16613C13.3968 7.16613 13.2923 7.13128 13.1529 7.09644C12.9438 7.0616 12.8045 6.92223 12.8393 6.71317C12.8742 6.46927 13.0484 6.36475 13.2574 6.36475C15.3131 6.50412 17.0553 7.79329 17.2992 10.0581C17.2992 10.1626 17.334 10.3368 17.334 10.511Z" fill="white"/>
<path d="M13.7453 7.93262C14.9299 7.96746 15.8359 8.9779 15.7662 10.0929C15.7662 10.3368 15.6616 10.5458 15.4177 10.511C15.2784 10.4761 15.139 10.3019 14.9996 10.1625C14.9648 10.1277 14.9996 10.058 14.9996 10.0232C14.8254 9.11727 14.5815 8.87337 13.6408 8.69916C13.3969 8.66431 13.2227 8.52494 13.2227 8.28104C13.2575 8.03715 13.4317 7.93262 13.6756 7.93262C13.7453 7.93262 13.7801 7.93262 13.7453 7.93262Z" fill="white"/>
</svg>
