<svg width="26" height="26" viewBox="0 0 26 26" fill="none" xmlns="http://www.w3.org/2000/svg">
<path d="M0.333008 25.0234L2.09523 18.3144C1.10839 16.4782 0.544474 14.4302 0.544474 12.3822C0.544474 5.53191 6.11309 0.0234375 12.88 0.0234375C19.647 0.0234375 25.2156 5.53191 25.2156 12.3822C25.2156 19.1619 19.7174 24.741 12.88 24.741C10.8358 24.741 8.86216 24.2466 7.02945 23.2579L0.333008 25.0234ZM7.38189 20.7155L7.80483 20.998C9.35558 21.9161 11.1178 22.4104 12.88 22.4104C18.3782 22.4104 22.8894 17.8907 22.8894 12.3822C22.8894 6.87372 18.3782 2.35395 12.88 2.35395C7.38189 2.35395 2.87061 6.87372 2.87061 12.3822C2.87061 14.2184 3.36403 15.9839 4.35087 17.5376L4.63283 17.9613L3.64598 21.7042L7.38189 20.7155Z" fill="white"/>
<path fill-rule="evenodd" clip-rule="evenodd" d="M17.4622 14.0768C16.9688 13.7943 16.2639 13.4412 15.7 13.6531C15.2065 13.8649 14.9246 14.5712 14.6426 14.9243C14.5016 15.1361 14.2902 15.1361 14.0787 15.0655C12.387 14.3593 11.0477 13.2294 10.0608 11.6757C9.91987 11.4638 9.91987 11.252 10.1313 11.0401C10.4133 10.687 10.7657 10.3339 10.8362 9.83952C10.9067 9.41579 10.6952 8.85082 10.4838 8.42709C10.2723 7.93274 9.99036 7.15591 9.42645 6.87342C8.93302 6.59093 8.29863 6.73218 7.87569 7.08528C7.1708 7.65026 6.81836 8.63896 6.81836 9.55704C6.81836 9.83952 6.88885 10.0514 6.88885 10.3339C7.02983 10.9695 7.31178 11.5344 7.66423 12.0288C7.87569 12.4525 8.15765 12.8056 8.4396 13.2294C9.35596 14.5005 10.4838 15.5599 11.8231 16.4073C12.4575 16.831 13.2328 17.1842 13.9377 17.396C14.7836 17.6785 15.4885 17.961 16.4048 17.8197C17.3212 17.6079 18.2376 17.0429 18.6605 16.1248C18.8015 15.8423 18.8015 15.5599 18.731 15.2774C18.731 14.7124 17.9556 14.3593 17.4622 14.0768Z" fill="white"/>
</svg>
