<svg width="320" height="636" viewBox="0 0 320 636" fill="none" xmlns="http://www.w3.org/2000/svg">
<path fill-rule="evenodd" clip-rule="evenodd" d="M213.208 0.0438792C285.623 1.72264 352.909 43.4086 398.145 95.5441C437.745 141.185 426.925 204.966 440.53 262.041C452.357 311.659 489.732 359.481 472.563 407.756C455.404 456.002 393.504 473.035 353.183 507.635C304.877 549.086 277.169 615.286 213.208 630.311C144.125 646.539 67.5093 626.659 9.5957 588.347C-48.486 549.924 -77.2294 486.338 -99.2012 423.641C-121.136 361.048 -137.743 294.185 -115.381 231.72C-93.0712 169.402 -35.1722 126.686 21.3842 86.8099C79.3728 45.9242 140.215 -1.64827 213.208 0.0438792Z" fill="#F9C404"/>
</svg>
