<svg width="898" height="948" viewBox="0 0 898 948" fill="none" xmlns="http://www.w3.org/2000/svg">
<path fill-rule="evenodd" clip-rule="evenodd" d="M504.738 0.767437C612.474 3.26531 712.579 65.291 779.878 142.865C838.793 210.775 822.696 305.676 842.936 390.599C860.531 464.429 916.137 535.583 890.593 607.413C865.065 679.199 772.973 704.544 712.986 756.026C641.12 817.702 599.896 916.202 504.738 938.558C401.961 962.705 287.976 933.125 201.815 876.12C115.404 818.949 72.6413 724.338 39.9529 631.049C7.31881 537.915 -17.3882 438.428 15.8813 345.485C49.0727 252.761 135.212 189.202 219.353 129.869C305.626 69.034 396.144 -1.75035 504.738 0.767437Z" fill="#F9C404"/>
</svg>
